<?xml version="1.0" encoding="iso-8859-1"?>
<!-- Uploaded to: SVG Repo, www.svgrepo.com, Generator: SVG Repo Mixer Tools -->
<svg fill="#000000" height="800px" width="800px" version="1.1" id="Layer_1" xmlns="http://www.w3.org/2000/svg" xmlns:xlink="http://www.w3.org/1999/xlink" 
	 viewBox="0 0 511.999 511.999" xml:space="preserve">
<g>
	<g>
		<path d="M507.311,22.85c-0.008-0.485-0.034-0.969-0.073-1.454c-0.025-0.305-0.051-0.608-0.087-0.91
			c-0.053-0.433-0.121-0.864-0.197-1.295c-0.064-0.357-0.13-0.712-0.209-1.064c-0.081-0.357-0.175-0.712-0.274-1.068
			c-0.115-0.417-0.237-0.828-0.374-1.236c-0.099-0.293-0.208-0.583-0.321-0.874c-0.172-0.45-0.355-0.893-0.554-1.329
			c-0.059-0.127-0.101-0.259-0.161-0.386c-0.07-0.144-0.155-0.276-0.226-0.419c-0.209-0.414-0.428-0.822-0.661-1.222
			c-0.171-0.295-0.346-0.585-0.529-0.87c-0.211-0.33-0.433-0.653-0.66-0.971c-0.233-0.326-0.468-0.647-0.716-0.957
			c-0.205-0.257-0.416-0.505-0.631-0.754c-0.288-0.333-0.581-0.661-0.887-0.975c-0.209-0.216-0.426-0.422-0.643-0.63
			c-0.324-0.309-0.65-0.611-0.988-0.898c-0.242-0.206-0.493-0.402-0.744-0.597c-0.326-0.254-0.653-0.505-0.991-0.741
			c-0.302-0.212-0.614-0.409-0.927-0.606c-0.302-0.189-0.603-0.38-0.913-0.555c-0.369-0.211-0.749-0.403-1.13-0.594
			c-0.273-0.135-0.544-0.271-0.823-0.397c-0.419-0.188-0.845-0.357-1.274-0.521c-0.267-0.101-0.533-0.203-0.803-0.295
			c-0.43-0.146-0.865-0.273-1.306-0.392c-0.301-0.082-0.6-0.163-0.904-0.233c-0.403-0.093-0.809-0.171-1.219-0.242
			c-0.369-0.065-0.738-0.122-1.11-0.169c-0.35-0.043-0.704-0.079-1.061-0.107c-0.445-0.036-0.892-0.057-1.34-0.067
			C484.406,0.022,484.244,0,484.075,0c-0.147,0-0.29,0.019-0.437,0.022c-0.464,0.008-0.927,0.034-1.392,0.07
			c-0.326,0.025-0.65,0.054-0.971,0.093c-0.412,0.05-0.822,0.115-1.234,0.188c-0.377,0.067-0.75,0.136-1.119,0.22
			c-0.341,0.078-0.681,0.169-1.02,0.262c-0.43,0.118-0.856,0.245-1.276,0.386c-0.284,0.096-0.564,0.202-0.847,0.31
			c-0.456,0.174-0.904,0.358-1.344,0.56c-0.127,0.057-0.257,0.099-0.383,0.16L257.31,105.813L40.567,2.273
			C29.422-3.05,16.183,1.299,10.256,11.939C6.78,16.003,4.668,21.27,4.668,27.038v208.45c0,5.234,1.75,10.05,4.67,13.938
			c0.078,0.174,0.135,0.35,0.217,0.523c3.991,8.357,12.32,13.238,21.002,13.238c3.36,0,6.774-0.733,10.008-2.278l77.947-37.237
			c1.397-0.667,2.971,0.504,2.732,2.034L80.827,485.156c-0.031,0.195-0.036,0.388-0.06,0.581c-0.068,0.516-0.13,1.034-0.163,1.557
			c-0.019,0.304-0.019,0.605-0.026,0.906c-0.011,0.451-0.02,0.902-0.005,1.357c0.012,0.381,0.048,0.757,0.081,1.133
			c0.031,0.367,0.059,0.735,0.107,1.102c0.06,0.459,0.147,0.91,0.234,1.361c0.056,0.29,0.104,0.578,0.172,0.867
			c0.121,0.516,0.27,1.02,0.425,1.524c0.056,0.185,0.093,0.369,0.154,0.552c0.02,0.06,0.047,0.118,0.068,0.178
			c0.101,0.291,0.216,0.577,0.327,0.865c0.149,0.385,0.302,0.766,0.47,1.138c0.109,0.24,0.222,0.476,0.338,0.712
			c0.212,0.434,0.439,0.857,0.674,1.273c0.098,0.172,0.194,0.344,0.296,0.513c0.318,0.526,0.654,1.034,1.008,1.529
			c0.043,0.06,0.082,0.124,0.127,0.184c0.84,1.146,1.777,2.199,2.796,3.157c0.146,0.138,0.298,0.268,0.448,0.402
			c0.354,0.316,0.715,0.623,1.087,0.916c0.206,0.163,0.414,0.324,0.625,0.479c0.343,0.253,0.695,0.491,1.051,0.724
			c0.229,0.15,0.453,0.307,0.688,0.45c0.546,0.33,1.102,0.64,1.673,0.926c0.231,0.115,0.473,0.212,0.709,0.321
			c0.402,0.184,0.803,0.361,1.214,0.523c0.253,0.099,0.51,0.189,0.768,0.279c0.456,0.16,0.916,0.305,1.383,0.437
			c0.202,0.056,0.402,0.118,0.605,0.169c1.848,0.47,3.762,0.726,5.704,0.726c0.661,0,1.324-0.034,1.989-0.091
			c0.262-0.022,0.519-0.064,0.78-0.095c0.377-0.045,0.754-0.09,1.13-0.154c0.34-0.057,0.674-0.132,1.009-0.205
			c0.295-0.064,0.588-0.126,0.881-0.202c0.358-0.093,0.71-0.198,1.062-0.307c0.171-0.053,0.343-0.091,0.513-0.149l105.4-35.179
			c10.35-3.455,17.33-13.142,17.33-24.055v-273.05c0-6.087,3.496-11.633,8.99-14.258l7.605-3.633c4.307-2.058,9.315-2.058,13.623,0
			l7.309,3.492c5.493,2.623,8.99,8.17,8.99,14.258v273.548c0,10.911,6.98,20.6,17.33,24.055l104.338,34.824
			c2.442,0.814,4.926,1.202,7.366,1.202c0.197,0,0.391-0.019,0.588-0.023c0.149,0.003,0.295,0.02,0.443,0.02
			c1.191,0,2.397-0.091,3.608-0.281c12.692-1.977,21.378-13.868,19.401-26.56l-40.442-259.603c-0.239-1.53,1.335-2.701,2.732-2.034
			l78.266,37.39c3.234,1.544,6.649,2.278,10.008,2.278c8.681,0,17.012-4.883,21.003-13.238c2.183-4.569,2.72-9.491,1.885-14.122
			c0.239-1.338,0.384-2.709,0.384-4.115V23.259h0.002C507.331,23.121,507.312,22.986,507.311,22.85z"/>
	</g>
</g>
</svg>