<?xml version="1.0" encoding="iso-8859-1"?>
<!-- Uploaded to: SVG Repo, www.svgrepo.com, Generator: SVG Repo Mixer Tools -->
<!DOCTYPE svg PUBLIC "-//W3C//DTD SVG 1.1//EN" "http://www.w3.org/Graphics/SVG/1.1/DTD/svg11.dtd">
<svg fill="#000000" version="1.1" id="Capa_1" xmlns="http://www.w3.org/2000/svg" xmlns:xlink="http://www.w3.org/1999/xlink" 
	 width="800px" height="800px" viewBox="0 0 593.81 593.81"
	 xml:space="preserve">
<g>
	<g>
		<path d="M438.608,583.679l19.599,0.357l11.738-15.703c193.004-258.223,105.252-440.068,95.9-457.746
			C535.08,48.381,472.92,9.773,403.434,9.773c-27.727,0-54.483,6.218-79.529,18.482c-41.604,20.371-73.389,56.023-89.57,98.404
			c-17.167-5.282-35.107-7.996-53.317-7.996c-27.708,0-54.443,6.215-79.471,18.47c-43.439,21.271-76.001,58.189-91.678,103.945
			c-15.597,45.527-12.625,94.386,8.351,137.66C26.462,396.982,116.304,577.791,438.608,583.679z M357.35,105.248
			c13.874-6.796,28.663-10.239,43.954-10.239c38.599,0,73.118,21.515,90.077,56.154l0.958,1.83
			c0.181,0.318,17.91,34.682,18.041,93.066c0.126,56.164-16.331,144.836-93.339,253.897
			c-103.902-4.748-191.33-31.863-253.775-78.871c-47.559-35.805-65.129-71.582-66.534-74.553L95.93,344.8
			c-24.29-49.612-3.693-109.735,45.918-134.028c13.856-6.787,28.624-10.227,43.896-10.227c19.691,0,38.816,5.737,55.38,16.634
			c6.45,4.226,13.907,6.457,21.561,6.457c20.551,0,37.252-15.539,38.853-36.117C304.305,152.271,325.691,120.75,357.35,105.248z"/>
	</g>
</g>
</svg>